<svg xmlns="http://www.w3.org/2000/svg" width="1440" height="900" viewBox="0 0 1440 900">
  <defs>
    <style>
      .kicker { font: 700 16px Georgia, serif; letter-spacing: .22em; }
      .title { font: 900 78px Georgia, serif; letter-spacing: 0; }
      .sub { font: 500 20px "Segoe UI", Arial, sans-serif; }
      .brand { font: 900 64px Georgia, serif; letter-spacing: 0; }
      .latin { font: 800 15px "Segoe UI", Arial, sans-serif; letter-spacing: .28em; }
      .line { font: 760 20px "Segoe UI", Arial, sans-serif; }
      .body { color: #53615f; font: 500 17px/1.45 "Segoe UI", Arial, sans-serif; }
      .note { font: 600 17px "Segoe UI", Arial, sans-serif; }
    </style>
  </defs>
  <rect width="1440" height="900" fill="#ebe4d4"/>
  <path d="M0 0h1440v164H0z" fill="#111817"/>
  <path d="M0 164c211 62 361 25 548 12 252-18 476 66 892 6v718H0z" fill="#ebe4d4"/>
  <text x="92" y="70" class="kicker" fill="#2ec4b6">FREE ANTIPLAGIARISM IDENTITY EXPLORATION</text>
  <text x="92" y="136" class="title" fill="#fbf7ed">Назва та логотип</text>
  <text x="792" y="95" class="sub" fill="#cbd7d4">3 короткі напрями для сервісу перевірки оригінальності тексту</text>
  
    <g>
      <rect x="92" y="238" width="360" height="510" rx="22" fill="#fbf7ed" stroke="#1f2726" stroke-opacity=".16"/>
      
      <g transform="translate(134 280)">
        <rect x="0" y="0" width="132" height="132" rx="28" fill="#10201f"/>
        <path d="M31 38h50c21 0 34 12 34 28s-13 28-34 28H31" fill="none" stroke="#eefbf8" stroke-width="12" stroke-linecap="round"/>
        <path d="M42 66h72" stroke="#2ec4b6" stroke-width="12" stroke-linecap="round"/>
        <path d="M65 28v76" stroke="#2ec4b6" stroke-width="9" stroke-linecap="round"/>
        <circle cx="66" cy="66" r="14" fill="#10201f" stroke="#eefbf8" stroke-width="8"/>
      </g>
      <text x="134" y="472" class="brand" fill="#111817">Незбіг</text>
      <text x="137" y="512" class="latin" fill="#53615f">NEZBIG</text>
      <line x1="134" y1="548" x2="410" y2="548" stroke="#2ec4b6" stroke-width="5" stroke-linecap="round"/>
      <text x="134" y="592" class="line" fill="#111817">Немає збігів. Є власний текст.</text>
      <foreignObject x="134" y="620" width="276" height="96">
        <div xmlns="http://www.w3.org/1999/xhtml" class="body">Найпряміша назва: сервіс шукає збіги, бренд обіцяє їхню відсутність.</div>
      </foreignObject>
      <g transform="translate(134 700)">
        <circle cx="16" cy="16" r="16" fill="#10201f"/>
        <circle cx="58" cy="16" r="16" fill="#2ec4b6"/>
        <circle cx="100" cy="16" r="16" fill="#eefbf8" stroke="#1f2726" stroke-opacity=".16"/>
      </g>
    </g>

    <g>
      <rect x="512" y="238" width="360" height="510" rx="22" fill="#fbf7ed" stroke="#1f2726" stroke-opacity=".16"/>
      
      <g transform="translate(554 280)">
        <rect x="0" y="0" width="132" height="132" rx="28" fill="#2b2412"/>
        <path d="M34 73c17-45 47-57 72-35 19 17 12 48-13 60-31 15-61-5-57-32" fill="none" stroke="#fff8df" stroke-width="10" stroke-linecap="round"/>
        <path d="M43 70h47" stroke="#ffbe0b" stroke-width="11" stroke-linecap="round"/>
        <circle cx="95" cy="38" r="12" fill="#ffbe0b"/>
        <circle cx="42" cy="92" r="7" fill="#fff8df"/>
      </g>
      <text x="554" y="472" class="brand" fill="#111817">Твірно</text>
      <text x="557" y="512" class="latin" fill="#53615f">TVIRNO</text>
      <line x1="554" y1="548" x2="830" y2="548" stroke="#ffbe0b" stroke-width="5" stroke-linecap="round"/>
      <text x="554" y="592" class="line" fill="#111817">Твір + вірно: перевірка авторства.</text>
      <foreignObject x="554" y="620" width="276" height="96">
        <div xmlns="http://www.w3.org/1999/xhtml" class="body">М'якіша академічна назва для студентів, викладачів і документів.</div>
      </foreignObject>
      <g transform="translate(554 700)">
        <circle cx="16" cy="16" r="16" fill="#2b2412"/>
        <circle cx="58" cy="16" r="16" fill="#ffbe0b"/>
        <circle cx="100" cy="16" r="16" fill="#fff8df" stroke="#1f2726" stroke-opacity=".16"/>
      </g>
    </g>

    <g>
      <rect x="932" y="238" width="360" height="510" rx="22" fill="#fbf7ed" stroke="#1f2726" stroke-opacity=".16"/>
      
    <g transform="translate(974 280)">
      <rect x="0" y="0" width="132" height="132" rx="28" fill="#28151a"/>
      <path d="M38 92c0-32 7-54 28-54 21 0 28 22 28 54" fill="none" stroke="#fff1f3" stroke-width="10" stroke-linecap="round"/>
      <path d="M66 38v56" stroke="#ff5d73" stroke-width="10" stroke-linecap="round"/>
      <path d="M45 74c15 7 27 7 42 0" fill="none" stroke="#ff5d73" stroke-width="9" stroke-linecap="round"/>
      <circle cx="66" cy="38" r="13" fill="#28151a" stroke="#fff1f3" stroke-width="8"/>
    </g>
      <text x="974" y="472" class="brand" fill="#111817">Слідок</text>
      <text x="977" y="512" class="latin" fill="#53615f">SLIDOK</text>
      <line x1="974" y1="548" x2="1250" y2="548" stroke="#ff5d73" stroke-width="5" stroke-linecap="round"/>
      <text x="974" y="592" class="line" fill="#111817">Знайти слід, не звинуватити автора.</text>
      <foreignObject x="974" y="620" width="276" height="96">
        <div xmlns="http://www.w3.org/1999/xhtml" class="body">Форензичний характер: сервіс акуратно показує джерела і текстові сліди.</div>
      </foreignObject>
      <g transform="translate(974 700)">
        <circle cx="16" cy="16" r="16" fill="#28151a"/>
        <circle cx="58" cy="16" r="16" fill="#ff5d73"/>
        <circle cx="100" cy="16" r="16" fill="#fff1f3" stroke="#1f2726" stroke-opacity=".16"/>
      </g>
    </g>
  <text x="92" y="820" class="note" fill="#111817">Рекомендація: “Незбіг” — найкоротше пояснює користь сервісу і добре працює як український бренд.</text>
  <text x="92" y="852" class="note" fill="#53615f">SVG побудований з векторних форм: його можна перетягнути у Figma та редагувати кольори, текст і композицію.</text>
</svg>